{
  "accessors": [
    {
      "bufferView": 2,
      "componentType": 5126,
      "count": 1789,
      "max": [
        32.11168670654297,
        6.922198295593262,
        53.2530517578125
      ],
      "min": [
        -32.111690521240234,
        -13.874479293823242,
        0.008045196533203125
      ],
      "type": "VEC3"
    },
    {
      "bufferView": 2,
      "byteOffset": 21468,
      "componentType": 5126,
      "count": 1789,
      "max": [
        1.0,
        0.9999545216560364,
        0.9994989633560181
      ],
      "min": [
        -1.0,
        -0.999293863773346,
        -1.0
      ],
      "type": "VEC3"
    },
    {
      "bufferView": 3,
      "componentType": 5126,
      "count": 1789,
      "max": [
        0.9999954700469971,
        1.0,
        0.9999930262565613,
        1.0
      ],
      "min": [
        -0.9999740719795227,
        -0.9994989633560181,
        -0.9999998807907104,
        1.0
      ],
      "type": "VEC4"
    },
    {
      "bufferView": 1,
      "componentType": 5126,
      "count": 1789,
      "max": [
        0.981243908405304,
        0.9940202832221985
      ],
      "min": [
        0.010591111145913601,
        0.005883553996682167
      ],
      "type": "VEC2"
    },
    {
      "bufferView": 1,
      "byteOffset": 14312,
      "componentType": 5126,
      "count": 1789,
      "max": [
        0.981243908405304,
        0.9940202832221985
      ],
      "min": [
        0.010591111145913601,
        0.005883553996682167
      ],
      "type": "VEC2"
    },
    {
      "bufferView": 0,
      "componentType": 5125,
      "count": 7776,
      "type": "SCALAR"
    }
  ],
  "asset": {
    "extras": {
      "author": "Guantanamera (https://sketchfab.com/guantanamera)",
      "license": "CC-BY-4.0 (http://creativecommons.org/licenses/by/4.0/)",
      "source": "https://sketchfab.com/3d-models/imac-45a93080f6604407bc74a987a9cd382a",
      "title": "iMac"
    },
    "generator": "Sketchfab-11.64.0",
    "version": "2.0"
  },
  "bufferViews": [
    {
      "buffer": 0,
      "byteLength": 31104,
      "name": "floatBufferViews",
      "target": 34963
    },
    {
      "buffer": 0,
      "byteLength": 28624,
      "byteOffset": 31104,
      "byteStride": 8,
      "name": "floatBufferViews",
      "target": 34962
    },
    {
      "buffer": 0,
      "byteLength": 42936,
      "byteOffset": 59728,
      "byteStride": 12,
      "name": "floatBufferViews",
      "target": 34962
    },
    {
      "buffer": 0,
      "byteLength": 28624,
      "byteOffset": 102664,
      "byteStride": 16,
      "name": "floatBufferViews",
      "target": 34962
    }
  ],
  "buffers": [
    {
      "byteLength": 131288,
      "uri": "scene.bin"
    }
  ],
  "images": [
    {
      "uri": "textures/m_monitor_01_baseColor.png"
    },
    {
      "uri": "textures/m_monitor_01_metallicRoughness.png"
    },
    {
      "uri": "textures/m_monitor_01_normal.png"
    }
  ],
  "materials": [
    {
      "doubleSided": true,
      "name": "m_monitor_01",
      "normalTexture": {
        "index": 2
      },
      "occlusionTexture": {
        "index": 1
      },
      "pbrMetallicRoughness": {
        "baseColorTexture": {
          "index": 0
        },
        "metallicRoughnessTexture": {
          "index": 1
        },
        "roughnessFactor": 0.6
      }
    }
  ],
  "meshes": [
    {
      "name": "sm_monitor_01_m_monitor_01_0",
      "primitives": [
        {
          "attributes": {
            "NORMAL": 1,
            "POSITION": 0,
            "TANGENT": 2,
            "TEXCOORD_0": 3,
            "TEXCOORD_1": 4
          },
          "indices": 5,
          "material": 0,
          "mode": 4
        }
      ]
    }
  ],
  "nodes": [
    {
      "children": [
        1
      ],
      "matrix": [
        1.0,
        0.0,
        0.0,
        0.0,
        0.0,
        2.220446049250313e-16,
        -1.0,
        0.0,
        0.0,
        1.0,
        2.220446049250313e-16,
        0.0,
        0.0,
        0.0,
        0.0,
        1.0
      ],
      "name": "Sketchfab_model"
    },
    {
      "children": [
        2
      ],
      "matrix": [
        0.009999999776482582,
        0.0,
        0.0,
        0.0,
        0.0,
        0.0,
        0.009999999776482582,
        0.0,
        0.0,
        -0.009999999776482582,
        0.0,
        0.0,
        0.0,
        0.0,
        0.0,
        1.0
      ],
      "name": "f5af3c91f88a49a183fa728d23f35f83.fbx"
    },
    {
      "children": [
        3
      ],
      "name": "RootNode"
    },
    {
      "children": [
        4
      ],
      "matrix": [
        1.0,
        0.0,
        0.0,
        0.0,
        0.0,
        2.220446049250313e-16,
        -1.0,
        0.0,
        0.0,
        1.0,
        2.220446049250313e-16,
        0.0,
        0.0,
        0.0,
        0.0,
        1.0
      ],
      "name": "sm_monitor_01"
    },
    {
      "children": [
        5
      ],
      "matrix": [
        1.0,
        0.0,
        -0.0,
        0.0,
        0.0,
        1.0,
        0.0,
        0.0,
        0.0,
        0.0,
        1.0,
        0.0,
        0.0,
        3.476139783859253,
        0.026718616485595703,
        1.0
      ],
      "name": "Object_4"
    },
    {
      "mesh": 0,
      "name": "sm_monitor_01_m_monitor_01_0"
    }
  ],
  "samplers": [
    {
      "magFilter": 9729,
      "minFilter": 9987,
      "wrapS": 10497,
      "wrapT": 10497
    }
  ],
  "scene": 0,
  "scenes": [
    {
      "name": "Sketchfab_Scene",
      "nodes": [
        0
      ]
    }
  ],
  "textures": [
    {
      "sampler": 0,
      "source": 0
    },
    {
      "sampler": 0,
      "source": 1
    },
    {
      "sampler": 0,
      "source": 2
    }
  ]
}
